#!OML:ASF F:\VICON\USERDATA\INSTALL\rory3\rory3.ASF
:FULLY-SPECIFIED
:DEGREES
4201
root 4.95703 18.0013 9.17711 173.866 219.107 -527.885
lowerback 11.0146 3.78869 1.11262
upperback 2.64081 5.04796 -1.62051
thorax -3.15292 2.48494 -2.98009
lowerneck -13.1224 6.67762 -9.30958
upperneck 47.2909 11.9969 3.20004
head 19.9302 3.25217 5.47439
rclavicle -1.32391e-013 2.22639e-014
rhumerus -32.9353 -11.4562 -77.2783
rradius 38.7994
rwrist 1.93401
rhand -14.2599 8.68149
rfingers 7.12502
rthumb 11.8784 -20.9616
lclavicle -1.32391e-013 2.22639e-014
lhumerus -42.6749 16.7366 77.1249
lradius 31.553
lwrist -5.48144
lhand -17.4664 26.6109
lfingers 7.12502
lthumb 8.78524 56.4081
rfemur -27.7658 -9.63041 18.3007
rtibia 40.3225
rfoot -6.20586 2.44201
rtoes 12.4877
lfemur 7.79061 -8.97617 -24.5548
ltibia 23.7966
lfoot 15.1918 -19.9986
ltoes 1.29138
4202
root 5.06868 17.9877 9.10699 174.072 218.637 -528.069
lowerback 11.0667 3.67415 1.23754
upperback 2.55205 4.91554 -1.52365
thorax -3.27962 2.41602 -2.94072
lowerneck -13.0683 6.60471 -9.38756
upperneck 47.3764 11.8735 3.27381
head 19.9715 3.19465 5.50773
rclavicle -7.21588e-014 4.6118e-014
rhumerus -33.0014 -11.4458 -77.1347
rradius 38.8531
rwrist 1.81186
rhand -14.358 8.74852
rfingers 7.12502
rthumb 11.7839 -20.9
lclavicle -7.21588e-014 4.6118e-014
lhumerus -42.4684 16.2606 77.856
lradius 31.9221
lwrist -5.26559
lhand -17.5908 26.4144
lfingers 7.12502
lthumb 8.66524 56.2166
rfemur -28.0845 -9.66119 18.295
rtibia 40.0064
rfoot -5.96462 1.87083
rtoes 13.2722
lfemur 8.0751 -9.07659 -24.8111
ltibia 22.9309
lfoot 13.4918 -19.7989
ltoes -1.4484
4203
root 5.17964 17.9756 9.03241 174.25 218.347 -528.257
lowerback 11.0889 3.60242 1.30389
upperback 2.55754 4.83192 -1.43058
thorax -3.29347 2.3739 -2.87178
lowerneck -13.197 6.53895 -9.35973
upperneck 47.4402 11.7969 3.25792
head 20.0697 3.15551 5.50122
rclavicle -8.68689e-014 7.95139e-015
rhumerus -32.8882 -11.4332 -77.0868
rradius 38.9311
rwrist 1.69842
rhand -14.4386 8.64251
rfingers 7.12502
rthumb 11.7061 -21.0104
lclavicle -8.68689e-014 7.95139e-015
lhumerus -42.0517 15.8125 78.6133
lradius 32.2598
lwrist -5.11749
lhand -17.8171 26.2845
lfingers 7.12502
lthumb 8.44686 56.0956
rfemur -28.4082 -9.4526 18.3188
rtibia 39.6874
rfoot -5.72995 1.29326
rtoes 12.6243
lfemur 8.40263 -8.95312 -24.9899
ltibia 22.1754
lfoot 10.8077 -19.4473
ltoes -5.35999
4204
root 5.28922 17.9639 8.95426 174.354 218.027 -528.364
lowerback 11.0877 3.54311 1.30663
upperback 2.64822 4.7548 -1.37575
thorax -3.20714 2.33746 -2.80212
lowerneck -13.3758 6.45995 -9.35226
upperneck 47.3779 11.692 3.26847
head 20.0892 3.1185 5.49813
rclavicle -1.65985e-013 3.49861e-014
rhumerus -32.607 -11.8313 -76.9915
rradius 38.9286
rwrist 1.85672
rhand -14.2769 8.63039
rfingers 7.12502
rthumb 11.8621 -21.0136
lclavicle -1.65985e-013 3.49861e-014
lhumerus -41.5013 15.2379 79.4194
lradius 32.7026
lwrist -5.0766
lhand -17.9477 26.176
lfingers 7.12502
lthumb 8.32084 55.9922
rfemur -28.6857 -9.26671 18.2538
rtibia 39.3221
rfoot -5.45689 0.767211
rtoes 12.1974
lfemur 8.7429 -8.87517 -25.2057
ltibia 21.5716
lfoot 8.01699 -18.477
ltoes -8.87454
4205
root 5.4011 17.9575 8.87356 174.514 217.604 -528.385
lowerback 11.0866 3.45415 1.25262
upperback 2.628 4.63275 -1.33818
thorax -3.24183 2.27659 -2.7183
lowerneck -13.4596 6.40259 -9.41124
upperneck 47.3705 11.6051 3.33849
head 20.1031 3.08365 5.53467
rclavicle 5.38706e-014 -1.74931e-014
rhumerus -32.4459 -11.9441 -76.957
rradius 39.008
rwrist 1.70166
rhand -14.2649 8.50794
rfingers 7.12502
rthumb 11.8737 -21.1354
lclavicle 5.38706e-014 -1.74931e-014
lhumerus -41.1456 14.5126 80.1925
lradius 33.2665
lwrist -4.91737
lhand -17.9495 26.0241
lfingers 7.12502
lthumb 8.31907 55.8403
rfemur -29.0403 -9.13024 18.0767
rtibia 38.8864
rfoot -4.98803 0.196219
rtoes 12.972
lfemur 8.85259 -8.91448 -25.4919
ltibia 21.0904
lfoot 5.20076 -17.5478
ltoes -15.575
4206
root 5.51261 17.9663 8.79434 174.659 217.302 -528.368
lowerback 11.1351 3.39592 1.14825
upperback 2.52853 4.54747 -1.2789
thorax -3.38987 2.23214 -2.5957
lowerneck -13.4376 6.3843 -9.38994
upperneck 47.3828 11.5716 3.33003
head 20.1125 3.07361 5.52189
rclavicle -2.48481e-014 9.54166e-015
rhumerus -32.4114 -11.8834 -76.8973
rradius 39.0521
rwrist 1.54384
rhand -14.3468 8.69924
rfingers 7.12502
rthumb 11.7947 -20.9486
lclavicle -2.48481e-014 9.54166e-015
lhumerus -40.9325 13.8185 80.9462
lradius 33.8099
lwrist -4.63583
lhand -18.0688 26.0093
lfingers 7.12502
lthumb 8.20391 55.8301
rfemur -29.3524 -8.95636 17.8682
rtibia 38.3687
rfoot -4.45777 -0.260697
rtoes 13.681
lfemur 8.74609 -8.99088 -25.8024
ltibia 20.6403
lfoot 3.4081 -16.6067
ltoes -18.3085
4207
root 5.62473 17.9774 8.71466 174.732 217.054 -528.353
lowerback 11.2312 3.35401 1.0116
upperback 2.47564 4.47985 -1.20493
thorax -3.5179 2.1973 -2.44313
lowerneck -13.3743 6.37542 -9.33821
upperneck 47.338 11.5588 3.2582
head 20.0786 3.07531 5.4679
rclavicle 1.19271e-015 -4.77083e-015
rhumerus -32.3577 -12.0514 -76.7611
rradius 39.0778
rwrist 1.76434
rhand -14.3613 8.95224
rfingers 7.12502
rthumb 11.7807 -20.6964
lclavicle 1.19271e-015 -4.77083e-015
lhumerus -40.6471 13.1274 81.7015
lradius 34.3065
lwrist -4.38098
lhand -18.3345 26.0561
lfingers 7.12502
lthumb 7.94754 55.8867
rfemur -29.5564 -8.76241 17.6367
rtibia 37.7927
rfoot -3.91652 -0.645276
rtoes 14.9154
lfemur 8.61149 -9.06329 -26.0677
ltibia 20.1672
lfoot 2.59827 -15.8283
ltoes -15.3598
4208
root 5.7365 17.9866 8.63005 174.897 216.849 -528.441
lowerback 11.2539 3.34872 0.950171
upperback 2.48267 4.4691 -1.12245
thorax -3.53501 2.19224 -2.32325
lowerneck -13.3902 6.32683 -9.33154
upperneck 47.2896 11.5063 3.20335
head 20.0644 3.05401 5.42961
rclavicle 3.97569e-016 -9.54166e-015
rhumerus -32.2406 -12.263 -76.6674
rradius 39.2032
rwrist 1.78684
rhand -14.4277 8.71344
rfingers 7.12502
rthumb 11.7167 -20.9389
lclavicle 3.97569e-016 -9.54166e-015
lhumerus -40.2403 12.4253 82.3995
lradius 34.8782
lwrist -4.4505
lhand -18.0696 26.2571
lfingers 7.12502
lthumb 8.20313 56.0778
rfemur -29.7762 -8.49222 17.5009
rtibia 37.1569
rfoot -3.27839 -0.998259
rtoes 15.1693
lfemur 8.43425 -9.06228 -26.1572
ltibia 19.6395
lfoot 1.59511 -15.4534
ltoes -14.4163
4209
root 5.84658 17.9982 8.54105 174.994 216.64 -528.429
lowerback 11.2909 3.35398 0.850984
upperback 2.4982 4.46486 -1.10879
thorax -3.5481 2.19069 -2.25519
lowerneck -13.4197 6.27007 -9.37727
upperneck 47.2428 11.3975 3.28527
head 20.0355 3.02107 5.45805
rclavicle 2.52457e-014 -7.95139e-015
rhumerus -32.1334 -12.3434 -76.695
rradius 39.3347
rwrist 1.60334
rhand -14.5729 8.29575
rfingers 7.12502
rthumb 11.5767 -21.3645
lclavicle 2.52457e-014 -7.95139e-015
lhumerus -39.8653 11.5753 83.0434
lradius 35.5593
lwrist -4.29797
lhand -17.7812 26.6461
lfingers 7.12502
lthumb 8.48149 56.4558
rfemur -29.9916 -8.19653 17.2594
rtibia 36.5199
rfoot -2.55719 -1.18882
rtoes 14.8133
lfemur 8.25781 -9.07147 -26.2553
ltibia 19.0515
lfoot 0.476691 -15.3419
ltoes -16.6947
4210
root 5.95888 18.0098 8.45264 175.036 216.411 -528.458
lowerback 11.4073 3.32843 0.838462
upperback 2.52752 4.42934 -1.09955
thorax -3.58458 2.17247 -2.24051
lowerneck -13.3842 6.24215 -9.42069
upperneck 47.1608 11.319 3.36544
head 19.9591 3.00627 5.48123
rclavicle -3.37934e-015 2.22639e-014
rhumerus -32.0176 -12.4894 -76.7299
rradius 39.424
rwrist 1.66282
rhand -14.6351 8.18007
rfingers 7.12502
rthumb 11.5166 -21.4835
lclavicle -3.37934e-015 2.22639e-014
lhumerus -39.5105 10.7355 83.6429
lradius 36.1692
lwrist -3.83403
lhand -18.2725 26.9267
lfingers 7.12502
lthumb 8.00735 56.755
rfemur -30.1142 -7.93064 17.0069
rtibia 35.8773
rfoot -1.87035 -1.33211
rtoes 14.052
lfemur 8.12257 -9.09765 -26.2769
ltibia 18.4932
lfoot -0.364431 -15.3897
ltoes -18.6143
4211
root 6.07164 18.0147 8.36669 175.067 216.275 -528.44
lowerback 11.4713 3.32175 0.768997
upperback 2.59119 4.41151 -1.09391
thorax -3.55975 2.16443 -2.19512
lowerneck -13.3802 6.23444 -9.3573
upperneck 46.9808 11.3142 3.27094
head 19.85 3.02205 5.40774
rclavicle -3.97569e-014 6.36111e-015
rhumerus -31.7967 -12.813 -76.7678
rradius 39.5066
rwrist 1.88523
rhand -14.6073 8.19166
rfingers 7.12502
rthumb 11.5435 -21.4705
lclavicle -3.97569e-014 6.36111e-015
lhumerus -39.077 10.1614 84.0754
lradius 36.7122
lwrist -3.74147
lhand -18.4947 26.9634
lfingers 7.12502
lthumb 7.79285 56.7998
rfemur -30.2896 -7.77585 16.7587
rtibia 35.2491
rfoot -1.35141 -1.29129
rtoes 12.2409
lfemur 7.89435 -9.04851 -26.298
ltibia 17.9943
lfoot -0.870497 -15.664
ltoes -19.549
